<svg version="1.1" id="Layer_1" xmlns="http://www.w3.org/2000/svg" xmlns:xlink="http://www.w3.org/1999/xlink" x="0px" y="0px"
	 width="100%" viewBox="0 0 1024 1024" enable-background="new 0 0 1024 1024" xml:space="preserve">
<path fill="#000000" opacity="1.000000" stroke="none" 
	d="
M340.936401,766.881348 
	C328.468750,766.480774 316.418549,768.093689 304.515808,766.308472 
	C277.238922,762.217529 257.714813,739.291138 257.703094,711.820984 
	C257.682190,662.822632 257.615997,613.824280 257.662048,564.825989 
	C257.689667,535.414978 281.395111,511.887512 310.806030,511.859253 
	C334.305298,511.836700 357.804535,511.761780 381.303802,511.771576 
	C384.767944,511.773010 388.015015,511.612091 389.958344,508.133820 
	C391.901031,504.656586 390.464813,501.723755 388.504791,498.865906 
	C388.410583,498.728546 388.309113,498.592926 388.237488,498.443756 
	C384.791382,491.264008 380.514130,487.371460 371.198853,486.406677 
	C343.767944,483.565674 325.830048,467.144623 321.344208,441.639404 
	C314.517578,402.825317 342.444733,374.562073 374.536682,375.837860 
	C382.238708,376.144043 386.036774,373.754395 389.628082,366.695374 
	C407.890198,330.799561 437.226685,307.779083 475.465302,295.933502 
	C542.715576,275.100708 613.048584,310.661102 642.211670,369.937927 
	C645.320679,376.257294 649.925781,375.600159 654.983154,375.665314 
	C677.867432,375.960205 697.578552,390.154480 705.555481,411.448059 
	C718.371887,445.659576 693.896179,486.332550 655.166626,486.894287 
	C650.579285,486.960846 647.593567,488.393402 645.505493,492.350433 
	C644.030701,495.145264 642.143982,497.722290 640.661621,500.513641 
	C637.513794,506.441223 640.629700,511.672333 647.427185,511.701843 
	C670.259521,511.800964 693.092346,511.807953 715.924988,511.812103 
	C744.086243,511.817230 765.761475,529.726440 770.830322,557.359497 
	C771.366272,560.280884 771.373657,563.326477 771.374451,566.314575 
	C771.387085,615.646240 771.424255,664.978088 771.315735,714.309570 
	C771.253967,742.381409 746.200623,767.425598 718.322083,766.769897 
	C691.326050,766.134888 664.337891,766.508606 637.347717,766.470947 
	C553.360596,766.353760 469.373108,766.400391 385.385773,766.439941 
	C370.732941,766.446838 356.080200,766.727112 340.936401,766.881348 
M411.144165,460.386078 
	C415.675598,471.956207 422.953369,481.689209 434.014404,487.124084 
	C440.489136,490.305450 441.585205,493.872864 441.526978,500.316071 
	C441.393372,515.106812 453.690979,528.461121 467.197876,528.557129 
	C498.008514,528.776062 528.822449,528.753113 559.633606,528.576111 
	C572.739746,528.500793 582.471863,520.805359 586.168579,508.303955 
	C587.255127,504.629425 588.135193,500.832001 587.699646,496.987000 
	C587.197144,492.550781 588.672668,490.026123 593.018860,488.269562 
	C598.585510,486.019775 603.406372,482.313446 607.551147,477.875885 
	C631.470032,452.267181 628.015320,409.588104 600.235962,387.655090 
	C585.682922,376.164856 569.458252,372.369995 551.431946,377.320251 
	C537.794006,381.065399 528.487976,390.266815 520.940186,401.692688 
	C517.753052,406.517456 511.985901,406.401031 508.736176,401.581299 
	C508.271576,400.892212 507.908691,400.135437 507.468445,399.428864 
	C495.235291,379.794189 469.571228,370.482544 447.646393,377.719666 
	C415.011292,388.492188 397.993073,426.412201 411.144165,460.386078 
M550.500000,735.840332 
	C564.992676,735.820190 579.486389,735.895813 593.977600,735.740784 
	C601.641968,735.658813 606.630615,731.796570 608.468994,725.081116 
	C612.897339,708.904541 601.803711,701.029541 590.385132,701.115601 
	C539.406372,701.500366 488.422791,701.238831 437.440948,701.224304 
	C427.071960,701.221375 421.147339,707.697937 421.155090,718.948669 
	C421.163116,730.680542 426.069000,735.967468 437.070404,735.958435 
	C474.546967,735.927673 512.023499,735.864990 550.500000,735.840332 
M739.894348,668.326172 
	C740.720398,655.147278 732.074829,649.550659 722.325500,649.442688 
	C700.705933,649.203003 679.081055,649.279053 657.459717,649.424011 
	C647.448730,649.491089 641.425964,655.822754 641.349304,665.759583 
	C641.337769,667.256470 641.324585,668.753967 641.356445,670.250305 
	C641.557373,679.696289 646.869446,685.017700 656.340515,685.104126 
	C678.114868,685.302673 699.889587,685.474121 721.664551,685.589050 
	C732.461853,685.645996 738.566772,680.079102 739.894348,668.326172 
M302.736969,650.103882 
	C293.274353,652.976685 288.888428,660.058472 290.152222,670.423950 
	C291.189575,678.932007 297.514496,685.405457 306.073425,685.506714 
	C328.366547,685.770447 350.666626,685.778992 372.959900,685.530029 
	C381.503204,685.434692 386.729309,679.557190 386.862579,671.144287 
	C386.904755,668.482605 386.904419,665.819641 386.878510,663.157715 
	C386.813446,656.480042 383.683777,652.339905 377.247223,650.357178 
	C374.844788,649.617126 372.402893,649.316589 369.876953,649.322693 
	C349.577301,649.371704 329.277527,649.353149 308.977875,649.397827 
	C307.163391,649.401855 305.349579,649.707031 302.736969,650.103882 
M356.744720,598.479431 
	C355.307434,598.101746 353.871918,597.403381 352.432587,597.395508 
	C336.132172,597.306152 319.829742,597.193726 303.531158,597.380493 
	C297.861389,597.445435 293.907043,600.649902 291.771271,605.950195 
	C289.706573,611.074036 289.717926,616.444641 290.822815,621.651672 
	C292.281555,628.526550 297.579529,632.906128 304.219116,632.943604 
	C320.185760,633.033691 336.155060,632.988098 352.120605,632.786255 
	C358.590973,632.704529 362.588562,629.289307 363.391968,622.995178 
	C364.062683,617.740479 364.045319,612.379761 363.212799,607.087463 
	C362.633118,603.402039 360.764313,600.603638 356.744720,598.479431 
M691.680481,544.339172 
	C678.781494,544.384216 673.496033,549.613098 673.351379,562.477051 
	C673.338257,563.642761 673.342712,564.808716 673.349915,565.974487 
	C673.407715,575.299438 678.030518,580.402893 687.261230,580.573547 
	C699.412659,580.798218 711.573669,580.744385 723.726318,580.548889 
	C728.691895,580.468933 733.374878,578.911743 736.326782,574.540039 
	C740.780945,567.943542 741.109497,560.611206 737.998840,553.606506 
	C735.002502,546.859070 728.849670,544.320312 721.615967,544.331360 
	C711.956360,544.346069 702.296692,544.337524 691.680481,544.339172 
M313.583282,544.333496 
	C309.927124,544.370728 306.287415,544.258240 302.662445,545.137878 
	C293.870819,547.271362 289.061676,555.284973 290.200134,566.205261 
	C291.151520,575.330994 296.935852,580.639526 306.116791,580.683472 
	C316.111298,580.731384 326.122131,580.328674 336.097321,580.769226 
	C352.138184,581.477661 356.838837,575.779968 356.089935,561.022217 
	C355.526154,549.911926 350.411682,544.409790 339.049011,544.355164 
	C330.886780,544.315979 322.724304,544.338318 313.583282,544.333496 
M739.188965,720.670837 
	C740.825562,709.368530 734.201233,701.386719 722.898804,701.100037 
	C719.235413,701.007080 715.545471,701.296021 711.907898,700.966858 
	C698.949341,699.794189 693.271729,707.486206 694.066467,719.042114 
	C694.157837,720.370850 694.132385,721.707520 694.219727,723.036682 
	C694.708008,730.463440 699.503845,735.332825 707.020081,735.717224 
	C711.673218,735.955139 716.346558,735.874146 721.009705,735.823914 
	C731.420593,735.711792 736.471375,731.631470 739.188965,720.670837 
M290.327362,720.154114 
	C292.390808,730.865356 298.036102,735.685486 308.829102,735.851685 
	C312.826569,735.913208 316.828918,735.903564 320.824646,735.782227 
	C330.015442,735.502991 334.947296,730.788513 335.635803,721.636536 
	C335.797882,719.481812 335.737701,717.304932 335.686188,715.140503 
	C335.492798,707.013062 330.051422,701.452087 321.839844,701.150940 
	C317.346466,700.986084 312.842529,701.060364 308.343903,701.094910 
	C296.299622,701.187256 290.450684,707.111633 290.327362,720.154114 
M361.164307,704.651123 
	C358.014526,707.649170 357.524017,711.500122 357.285278,715.606812 
	C356.386139,731.072327 361.240082,736.347778 377.504395,736.314575 
	C396.818146,736.275208 399.612946,730.446777 398.948120,714.260803 
	C398.612396,706.087036 394.592621,701.589355 386.351929,701.160034 
	C380.703949,700.865662 375.030701,701.052795 369.368683,701.033997 
	C366.394928,701.024109 363.841583,702.075562 361.164307,704.651123 
M646.636963,701.000305 
	C634.789734,700.953735 631.171448,704.557617 631.118103,716.473755 
	C631.107666,718.804626 631.018433,721.142761 631.162415,723.465271 
	C631.598572,730.503113 636.110413,735.367188 643.143982,735.798401 
	C648.782227,736.144165 654.467468,736.035278 660.117371,735.793030 
	C665.947083,735.542969 670.489258,731.579468 671.609009,725.796814 
	C672.300598,722.224609 672.729919,718.578125 672.302185,714.877625 
	C671.122803,704.673035 667.459412,701.297607 657.091858,701.097168 
	C653.928040,701.036011 650.762878,701.041809 646.636963,701.000305 
M558.779053,548.283081 
	C556.140503,550.916382 555.131409,554.104858 555.261780,557.805969 
	C555.396606,561.632385 555.220398,565.469116 555.324829,569.297424 
	C555.510498,576.104431 559.821777,580.469788 566.643188,580.656433 
	C571.636475,580.793091 576.638672,580.778015 581.632996,580.662415 
	C588.053955,580.513855 592.443542,576.061707 592.652527,569.548950 
	C592.769958,565.887817 592.729431,562.220398 592.700134,558.556213 
	C592.645752,551.762573 589.097961,546.240723 582.447327,545.043884 
	C574.657104,543.641846 566.519897,542.580872 558.779053,548.283081 
M437.146118,559.695740 
	C437.162262,563.020203 437.109314,566.346802 437.209015,569.668762 
	C437.414337,576.506653 441.292816,580.476746 448.049561,580.650330 
	C452.867371,580.774109 457.692780,580.759949 462.511414,580.653931 
	C468.564209,580.520935 472.269745,577.428711 473.949646,571.491516 
	C475.201111,567.068542 474.601044,562.564575 474.619202,558.101013 
	C474.651367,550.190125 469.276154,544.723877 461.278992,544.379272 
	C458.126160,544.243408 454.953094,544.186768 451.806183,544.376038 
	C442.023315,544.964417 436.679260,549.713440 437.146118,559.695740 
M466.351349,663.791992 
	C466.352325,665.954773 466.308380,668.118652 466.362061,670.280151 
	C466.610229,680.271912 470.858429,686.787964 482.327362,685.779663 
	C484.474457,685.590942 486.650787,685.743835 488.813416,685.721191 
	C496.441071,685.641418 501.650421,682.912354 502.781860,676.979309 
	C504.577637,667.562683 504.875000,656.212708 498.836914,652.669312 
	C497.977142,652.164795 497.128082,651.637451 496.242310,651.182495 
	C490.247650,648.104004 483.834351,649.022705 477.665131,649.876953 
	C470.466736,650.873657 466.951599,655.450806 466.351349,663.791992 
M378.602905,553.556641 
	C377.858612,559.529175 378.124603,565.529175 378.386871,571.501831 
	C378.604675,576.461975 382.858093,580.440308 387.935852,580.623291 
	C393.256042,580.814941 398.596924,580.852722 403.913513,580.615784 
	C410.187775,580.336121 414.410706,575.915588 414.644135,569.680603 
	C414.774841,566.189270 414.689362,562.689453 414.687531,559.193481 
	C414.682709,549.891174 409.242950,544.415527 399.893280,544.315674 
	C397.562988,544.290771 395.231232,544.368286 392.901520,544.324585 
	C386.439819,544.203308 381.666748,546.819336 378.602905,553.556641 
M548.015198,649.369873 
	C545.021057,649.368652 542.026062,649.319336 539.033020,649.375366 
	C530.411804,649.536865 525.308411,654.424866 525.071106,662.894409 
	C524.959412,666.880798 525.030334,670.881409 525.226868,674.865234 
	C525.539551,681.204163 529.608765,685.383118 535.935730,685.699829 
	C540.415527,685.924011 544.917786,685.835022 549.406067,685.724670 
	C556.403809,685.552612 561.263672,680.839905 561.642944,673.862122 
	C561.814331,670.709778 561.738342,667.542847 561.738831,664.382568 
	C561.740295,654.818909 558.563782,651.121582 548.015198,649.369873 
M639.102478,580.680237 
	C647.725159,580.234070 651.542725,576.387756 651.662537,567.967102 
	C651.712219,564.475464 651.712952,560.982422 651.681763,557.490540 
	C651.614014,549.905762 647.077637,544.893494 639.546936,544.408142 
	C635.573120,544.152039 631.551392,544.138855 627.581787,544.430359 
	C621.149170,544.902649 615.797302,550.108765 615.404541,556.245422 
	C615.107544,560.885132 615.034485,565.558716 615.209045,570.204102 
	C615.434448,576.202271 619.716309,580.393738 625.716248,580.641296 
	C629.866699,580.812622 634.029663,580.679443 639.102478,580.680237 
M525.365723,545.932922 
	C519.461426,543.384521 513.220337,544.015747 507.181763,544.647339 
	C500.389771,545.357849 496.350250,550.516235 496.226410,557.353027 
	C496.148163,561.671326 496.108124,565.999512 496.308655,570.311340 
	C496.577606,576.094849 500.710999,580.351074 506.427124,580.605957 
	C511.402283,580.827881 516.403320,580.831177 521.378296,580.607056 
	C528.169006,580.301086 532.575195,575.466797 532.654419,568.582520 
	C532.694641,565.093262 532.543091,561.598083 532.693115,558.114807 
	C532.924500,552.740723 530.772156,548.812378 525.365723,545.932922 
M409.538452,657.262329 
	C407.599731,663.105225 408.058929,669.144287 408.887146,674.993958 
	C409.874481,681.967468 414.746643,685.616760 421.724762,685.707764 
	C425.377625,685.755371 429.033997,685.777588 432.684998,685.675964 
	C439.706085,685.480469 444.474701,680.720215 444.658875,673.721252 
	C444.768127,669.571777 444.633942,665.415161 444.778198,661.267578 
	C444.878632,658.378784 443.743500,656.172363 441.789886,654.176880 
	C434.158478,646.381958 416.208160,647.715454 409.538452,657.262329 
M584.292358,674.860046 
	C585.887634,682.341492 589.905151,685.676575 597.457458,685.729675 
	C600.952148,685.754272 604.451904,685.811768 607.941345,685.664490 
	C614.836426,685.373535 619.418701,680.789185 619.697510,673.950439 
	C619.846558,670.293457 619.409119,666.562500 619.978821,662.983154 
	C621.109741,655.877625 614.721680,650.000244 607.760620,649.395935 
	C594.132019,648.212830 585.637329,652.021057 584.336243,660.012634 
	C584.150269,661.154907 584.146667,662.335449 584.148682,663.498169 
	C584.154602,666.992615 584.205139,670.487061 584.292358,674.860046 
M713.902771,632.896973 
	C718.030762,633.264709 722.142090,633.995178 726.310913,633.336792 
	C735.288879,631.918884 739.494446,627.176697 739.626526,618.281372 
	C739.893738,600.295288 736.191895,596.654114 718.077820,597.085449 
	C717.911743,597.089417 717.745605,597.089661 717.579590,597.094910 
	C709.903320,597.338867 705.640991,601.442444 705.311279,609.195007 
	C705.120911,613.671509 705.157776,618.164978 705.283081,622.645508 
	C705.428284,627.838440 707.723633,631.524292 713.902771,632.896973 
M408.104706,627.580933 
	C410.231201,620.053101 410.236908,612.435974 408.490479,604.894775 
	C407.343719,599.942810 401.602905,596.405579 396.073151,596.634766 
	C390.234772,596.876587 386.391113,600.123596 385.103302,605.690796 
	C383.996796,610.474060 384.413757,615.311157 384.399017,620.128235 
	C384.376099,627.626709 386.357697,630.979919 391.682617,632.907043 
	C397.627716,635.058594 403.207489,633.428101 408.104706,627.580933 
M431.075104,613.460693 
	C430.966156,616.289551 430.739624,619.119751 430.771423,621.947021 
	C430.851166,629.037048 435.331665,633.542969 442.295929,633.684387 
	C450.622742,633.853577 455.484955,629.804077 455.707947,622.317627 
	C455.846771,617.657837 455.811707,612.988525 455.704651,608.326904 
	C455.568909,602.416809 452.576691,598.589111 447.364105,597.385864 
	C441.113403,595.943115 435.088104,598.123718 432.407318,602.740173 
	C430.609802,605.835693 431.459290,609.253784 431.075104,613.460693 
M501.817017,610.737183 
	C501.595367,601.347534 497.499939,596.859619 489.245636,596.961060 
	C481.425598,597.057129 477.468323,601.688721 477.332977,610.998596 
	C477.272491,615.160645 477.183563,619.330383 477.360199,623.485901 
	C477.628235,629.790833 482.152679,633.595520 489.163269,633.661499 
	C496.681519,633.732117 501.279907,630.138550 501.649078,623.662048 
	C501.876251,619.676575 501.771851,615.672180 501.817017,610.737183 
M614.407776,618.263000 
	C614.540039,620.246887 614.488770,622.263733 614.838379,624.208557 
	C615.984009,630.583130 621.521423,634.350037 628.465393,633.627625 
	C634.862732,632.962036 638.595215,628.891113 638.666748,622.390747 
	C638.721558,617.409302 638.609558,612.425232 638.711792,607.445251 
	C638.766602,604.775208 637.897644,602.515015 636.114624,600.662659 
	C632.608582,597.020386 628.437317,595.770081 623.438110,597.193726 
	C618.197327,598.686157 615.167786,602.038757 614.618225,607.381714 
	C614.279846,610.671753 614.454712,614.014465 614.407776,618.263000 
M534.826782,633.638062 
	C544.877747,633.394653 548.051025,630.259888 548.072205,620.542786 
	C548.080933,616.548340 548.149658,612.552368 548.063416,608.559875 
	C547.904236,601.191040 543.267334,596.470093 536.306458,596.468750 
	C529.513794,596.467468 524.557312,601.349487 524.287170,608.506470 
	C524.130371,612.661743 524.205750,616.827026 524.227844,620.987488 
	C524.270935,629.111511 526.098450,631.439575 534.826782,633.638062 
M683.745605,623.042664 
	C683.768127,618.054321 683.906555,613.063171 683.784973,608.078308 
	C683.618225,601.239563 679.042236,596.979309 671.883850,596.757141 
	C665.531128,596.559998 660.645203,601.159851 660.326660,607.921814 
	C660.099854,612.735168 660.111084,617.565125 660.176208,622.385498 
	C660.274048,629.626648 663.626648,633.155273 670.676575,633.662720 
	C678.253357,634.208069 682.579346,630.975891 683.745605,623.042664 
M570.236023,604.921692 
	C568.699219,611.663757 569.142761,618.462463 570.203064,625.160339 
	C571.215210,631.554077 575.093811,633.634216 583.401611,633.043396 
	C589.174500,632.632812 592.579102,629.300354 592.803284,623.554565 
	C592.990784,618.748169 592.982910,613.932312 592.979736,609.120667 
	C592.975281,602.277649 590.318420,598.583679 584.653687,597.387695 
	C577.871155,595.955627 573.315186,598.117432 570.236023,604.921692 
M366.255096,453.344879 
	C368.730713,453.993469 371.125336,455.624847 373.940613,454.019287 
	C373.847961,452.966217 373.855133,451.960022 373.660004,450.994720 
	C371.057220,438.119629 370.724792,425.252686 373.431183,412.330841 
	C374.234283,408.496246 372.760986,407.594208 368.383270,408.853027 
	C360.488892,411.123077 354.126556,418.527832 353.294983,426.413361 
	C351.926666,439.388641 355.783905,447.752045 366.255096,453.344879 
M660.044617,454.559875 
	C673.833496,449.703918 680.449097,435.412964 675.150330,421.928589 
	C671.768250,413.321777 661.954346,407.107239 655.456421,409.744110 
	C658.788757,423.638062 658.982239,437.641144 655.711121,451.645142 
	C654.936340,454.961914 657.225281,454.679779 660.044617,454.559875 
M472.761902,324.246094 
	C466.331512,330.924866 462.116058,338.723938 461.374207,348.058411 
	C461.058014,352.037109 462.709625,355.538666 466.920258,356.434509 
	C471.302185,357.366821 473.437439,353.980225 474.325836,350.553711 
	C476.407104,342.526581 479.854004,335.671326 487.171844,331.127289 
	C489.863861,329.455658 490.511719,326.598450 489.494141,323.607758 
	C488.455414,320.554932 486.046295,319.331757 482.932892,319.173553 
	C478.872467,318.967163 476.126160,321.440552 472.761902,324.246094 
M452.025543,334.365143 
	C449.658173,332.953064 447.184692,332.922455 444.913361,334.346100 
	C436.991119,339.311768 431.514069,346.204742 428.964081,355.281891 
	C428.126343,358.264038 429.422699,360.505005 431.769012,362.166351 
	C434.235992,363.913116 436.765076,363.656036 439.205780,361.977264 
	C440.767426,360.903168 441.922607,359.429016 442.568481,357.718445 
	C444.173889,353.466644 447.122101,350.601135 450.875183,348.123566 
	C456.683563,344.289276 457.003540,340.619141 452.025543,334.365143 
z"/>
<path fill="#000000" opacity="1.000000" stroke="none" 
	d="
M448.487701,447.182922 
	C444.711151,434.558350 450.168396,422.686310 461.283661,418.654083 
	C472.000702,414.766327 483.833160,420.444244 488.527191,431.727173 
	C492.707581,441.775482 488.190155,453.839294 478.341248,458.928802 
	C468.519440,464.004242 456.086853,460.548004 450.388916,451.123810 
	C449.704926,449.992554 449.216675,448.742950 448.487701,447.182922 
z"/>
<path fill="#000000" opacity="1.000000" stroke="none" 
	d="
M547.084595,455.992798 
	C534.187317,445.828583 539.247681,424.578339 551.898376,419.303741 
	C561.314331,415.377838 572.150024,418.151917 578.198059,426.507996 
	C584.407104,435.086487 583.772827,446.031281 576.601196,454.062897 
	C569.721252,461.767822 559.397278,463.389709 550.265564,458.174194 
	C549.256226,457.597717 548.327209,456.880829 547.084595,455.992798 
z"/>
<path fill="#000000" opacity="1.000000" stroke="none" 
	d="
M498.323608,501.755188 
	C494.577637,498.782288 491.998688,495.375244 490.423492,491.239838 
	C488.853027,487.116699 489.797791,483.476624 493.513794,481.243988 
	C497.239441,479.005585 500.728119,479.895966 503.672821,483.338074 
	C513.225159,494.503601 514.987000,494.499298 525.196106,483.534882 
	C528.057434,480.461853 531.348633,479.632629 535.049561,481.565094 
	C538.647949,483.443970 539.897888,487.743774 538.367371,491.961670 
	C532.893799,507.045319 512.718262,512.134888 498.323608,501.755188 
z"/>
</svg>